<?xml version="1.0" encoding="iso-8859-1"?>
<!-- Uploaded to: SVG Repo, www.svgrepo.com, Generator: SVG Repo Mixer Tools -->
<!DOCTYPE svg PUBLIC "-//W3C//DTD SVG 1.1//EN" "http://www.w3.org/Graphics/SVG/1.1/DTD/svg11.dtd">
<svg fill="#000000" height="800px" width="800px" version="1.1" id="Capa_1" xmlns="http://www.w3.org/2000/svg" xmlns:xlink="http://www.w3.org/1999/xlink" 
	 viewBox="0 0 60 60" xml:space="preserve">
<g>
	<path d="M60,26h-5h-2h-1v5v2v1h2.671c-0.096,0.601-0.212,1.205-0.353,1.795c-0.128,0.538,0.204,1.077,0.741,1.204
		c0.078,0.019,0.155,0.027,0.232,0.027c0.452,0,0.862-0.309,0.972-0.769c0.159-0.67,0.295-1.356,0.401-2.039
		c0.012-0.075-0.005-0.146-0.01-0.219H60V26z"/>
	<path d="M7.298,40.469c-0.267-0.576-0.515-1.173-0.737-1.774c-0.191-0.518-0.765-0.783-1.285-0.59
		c-0.518,0.191-0.782,0.767-0.59,1.285c0.24,0.65,0.509,1.296,0.798,1.919c0.169,0.365,0.53,0.58,0.908,0.58
		c0.141,0,0.283-0.03,0.419-0.092C7.312,41.565,7.53,40.97,7.298,40.469z"/>
	<path d="M17.781,7.03c-0.278-0.478-0.891-0.637-1.368-0.36c-0.597,0.348-1.187,0.723-1.753,1.115
		c-0.454,0.314-0.567,0.938-0.253,1.392c0.194,0.28,0.506,0.431,0.823,0.431c0.196,0,0.395-0.058,0.568-0.178
		c0.524-0.363,1.069-0.71,1.622-1.032C17.897,8.119,18.059,7.507,17.781,7.03z"/>
	<path d="M12.89,48.22c-0.4-0.378-1.035-0.359-1.413,0.044c-0.379,0.402-0.358,1.035,0.044,1.413
		c0.505,0.475,1.032,0.934,1.566,1.363c0.186,0.148,0.406,0.221,0.626,0.221c0.293,0,0.583-0.128,0.78-0.374
		c0.346-0.43,0.277-1.06-0.152-1.406C13.846,49.084,13.357,48.659,12.89,48.22z"/>
	<path d="M9.174,43.824c-0.306-0.461-0.926-0.585-1.387-0.28c-0.46,0.306-0.585,0.926-0.279,1.386
		c0.38,0.572,0.789,1.139,1.215,1.684c0.197,0.252,0.491,0.384,0.789,0.384c0.215,0,0.432-0.069,0.614-0.212
		c0.436-0.34,0.513-0.969,0.173-1.404C9.904,44.878,9.525,44.353,9.174,43.824z"/>
	<path d="M12.814,11.85c0.401-0.379,0.418-1.012,0.039-1.414c-0.381-0.4-1.013-0.417-1.414-0.039
		c-0.504,0.477-0.993,0.977-1.452,1.484c-0.371,0.409-0.339,1.042,0.07,1.412c0.191,0.173,0.432,0.259,0.671,0.259
		c0.272,0,0.544-0.111,0.741-0.329C11.896,12.754,12.348,12.292,12.814,11.85z"/>
	<path d="M49.127,13.91c0.197,0.235,0.48,0.356,0.766,0.356c0.227,0,0.456-0.077,0.644-0.235c0.422-0.356,0.477-0.987,0.12-1.409
		c-0.44-0.524-0.911-1.041-1.396-1.536c-0.389-0.394-1.021-0.4-1.414-0.013c-0.395,0.387-0.4,1.02-0.014,1.415
		C48.283,12.946,48.718,13.425,49.127,13.91z"/>
	<path d="M53.772,22.26c0.197,0.606,0.373,1.228,0.523,1.849c0.11,0.458,0.52,0.765,0.971,0.765c0.078,0,0.157-0.009,0.235-0.028
		c0.537-0.13,0.867-0.67,0.737-1.207c-0.162-0.671-0.352-1.343-0.564-1.998c-0.171-0.526-0.732-0.812-1.261-0.642
		C53.89,21.17,53.602,21.734,53.772,22.26z"/>
	<path d="M4.702,23.918c0.091,0.025,0.182,0.038,0.271,0.038c0.437,0,0.838-0.289,0.962-0.73c0.172-0.614,0.371-1.229,0.59-1.827
		c0.19-0.519-0.075-1.093-0.594-1.283c-0.521-0.188-1.093,0.077-1.283,0.595c-0.237,0.646-0.452,1.311-0.639,1.976
		C3.86,23.217,4.171,23.769,4.702,23.918z"/>
	<path d="M5.507,35c-0.067-0.33-0.109-0.666-0.163-1H8v-1.95v-2V26H6.05H4.68c-0.111-0.063-0.237-0.104-0.372-0.12
		C4.103,25.855,3.914,25.911,3.743,26H0v8h3.319c0.069,0.468,0.134,0.937,0.227,1.397c0.097,0.474,0.514,0.801,0.979,0.801
		c0.065,0,0.133-0.006,0.2-0.02C5.267,36.069,5.616,35.541,5.507,35z"/>
	<path d="M6.763,18.296c0.153,0.085,0.319,0.125,0.483,0.125c0.352,0,0.693-0.186,0.876-0.516c0.307-0.555,0.642-1.108,0.995-1.644
		c0.304-0.461,0.177-1.082-0.285-1.385c-0.46-0.304-1.08-0.175-1.385,0.285c-0.382,0.579-0.743,1.176-1.075,1.776
		C6.104,17.42,6.279,18.028,6.763,18.296z"/>
	<path d="M52.305,18.709c0.177,0.348,0.528,0.548,0.894,0.548c0.151,0,0.306-0.035,0.45-0.108c0.493-0.25,0.69-0.851,0.441-1.344
		c-0.311-0.613-0.65-1.224-1.01-1.815c-0.286-0.471-0.902-0.621-1.374-0.335c-0.472,0.287-0.622,0.902-0.335,1.374
		C51.704,17.577,52.018,18.142,52.305,18.709z"/>
	<path d="M36.427,54.159c-0.614,0.163-1.244,0.305-1.874,0.42c-0.227,0.042-0.41,0.168-0.553,0.328v-1.331V52h-2.424h-4H26v2.424V60
		h8v-3.779c0.186,0.207,0.444,0.342,0.732,0.342c0.06,0,0.12-0.005,0.182-0.017c0.681-0.125,1.362-0.278,2.026-0.455
		c0.534-0.142,0.852-0.689,0.71-1.223S36.961,54.017,36.427,54.159z"/>
	<path d="M41.781,52.048c-0.561,0.301-1.142,0.584-1.728,0.841c-0.506,0.222-0.735,0.812-0.513,1.318
		c0.164,0.375,0.531,0.598,0.916,0.598c0.134,0,0.271-0.027,0.401-0.085c0.634-0.278,1.262-0.584,1.868-0.91
		c0.487-0.261,0.67-0.868,0.408-1.354C42.875,51.97,42.269,51.787,41.781,52.048z"/>
	<path d="M40.36,7.154c0.387,0,0.755-0.225,0.918-0.602c0.221-0.507-0.012-1.096-0.519-1.315c-0.632-0.275-1.283-0.528-1.934-0.753
		c-0.522-0.183-1.091,0.096-1.272,0.618c-0.181,0.522,0.097,1.091,0.618,1.272c0.603,0.209,1.205,0.444,1.791,0.698
		C40.093,7.127,40.228,7.154,40.36,7.154z"/>
	<path d="M45.536,10.159c0.305,0,0.605-0.139,0.802-0.401c0.331-0.442,0.24-1.069-0.202-1.4c-0.558-0.417-1.134-0.813-1.712-1.178
		c-0.468-0.294-1.084-0.154-1.38,0.312c-0.295,0.467-0.155,1.084,0.312,1.379c0.535,0.337,1.067,0.704,1.583,1.089
		C45.118,10.094,45.328,10.159,45.536,10.159z"/>
	<path d="M46.51,48.765c-0.48,0.424-0.982,0.833-1.49,1.215c-0.441,0.332-0.529,0.959-0.197,1.4c0.196,0.261,0.496,0.398,0.8,0.398
		c0.209,0,0.42-0.065,0.601-0.201c0.549-0.413,1.09-0.854,1.609-1.312c0.414-0.365,0.454-0.997,0.089-1.412
		C47.556,48.44,46.925,48.399,46.51,48.765z"/>
	<path d="M24.648,54.419c-0.625-0.136-1.251-0.299-1.86-0.482c-0.53-0.16-1.087,0.142-1.246,0.669
		c-0.158,0.529,0.141,1.086,0.67,1.246c0.658,0.198,1.334,0.374,2.009,0.521c0.072,0.016,0.144,0.023,0.215,0.023
		c0.46,0,0.874-0.319,0.976-0.787C25.529,55.071,25.187,54.538,24.648,54.419z"/>
	<path d="M23.359,4.842c-0.16-0.528-0.719-0.826-1.248-0.665c-0.662,0.202-1.322,0.432-1.962,0.683
		c-0.515,0.202-0.768,0.782-0.565,1.296c0.154,0.395,0.531,0.635,0.931,0.635c0.122,0,0.245-0.022,0.365-0.07
		c0.592-0.232,1.203-0.445,1.815-0.631C23.224,5.929,23.521,5.371,23.359,4.842z"/>
	<path d="M19.208,52.551c-0.573-0.275-1.146-0.577-1.699-0.896c-0.479-0.278-1.09-0.113-1.366,0.365s-0.112,1.09,0.366,1.366
		c0.598,0.346,1.216,0.672,1.836,0.969c0.139,0.067,0.286,0.098,0.431,0.098c0.373,0,0.731-0.209,0.903-0.568
		C19.917,53.387,19.706,52.789,19.208,52.551z"/>
	<path d="M50.368,44.491c-0.374,0.523-0.77,1.036-1.176,1.522c-0.354,0.424-0.297,1.054,0.127,1.408
		c0.187,0.156,0.414,0.232,0.64,0.232c0.287,0,0.571-0.122,0.769-0.359c0.438-0.525,0.865-1.077,1.268-1.642
		c0.321-0.449,0.217-1.074-0.232-1.395C51.313,43.938,50.688,44.042,50.368,44.491z"/>
	<path d="M54.45,38.905c-0.512-0.208-1.096,0.036-1.305,0.547c-0.24,0.588-0.508,1.176-0.795,1.75
		c-0.248,0.494-0.049,1.094,0.445,1.342c0.144,0.072,0.297,0.106,0.447,0.106c0.366,0,0.72-0.202,0.895-0.552
		c0.311-0.619,0.6-1.254,0.859-1.889C55.206,39.698,54.961,39.114,54.45,38.905z"/>
	<path d="M26,5.475V8h3.475h2H34V5.328c0.152,0.025,0.306,0.047,0.457,0.075c0.55,0.097,1.064-0.264,1.162-0.807
		s-0.264-1.063-0.807-1.162C34.544,3.386,34.271,3.355,34,3.315V0h-8v3.335c-0.453,0.148-0.757,0.587-0.688,1.075
		C25.369,4.802,25.646,5.108,26,5.221V5.475z"/>
</g>
</svg>