<?xml version="1.0" encoding="iso-8859-1"?>
<!-- Uploaded to: SVG Repo, www.svgrepo.com, Generator: SVG Repo Mixer Tools -->
<!DOCTYPE svg PUBLIC "-//W3C//DTD SVG 1.1//EN" "http://www.w3.org/Graphics/SVG/1.1/DTD/svg11.dtd">
<svg fill="#000000" height="800px" width="800px" version="1.1" id="Capa_1" xmlns="http://www.w3.org/2000/svg" xmlns:xlink="http://www.w3.org/1999/xlink" 
	 viewBox="0 0 60 60" xml:space="preserve">
<g>
	<path d="M46,0v14h14V0H46z"/>
	<path d="M14,0H0v14h7h7V7V0z M9.414,12L12,9.414V12H9.414z M12,6.586L6.586,12H3.414L12,3.414V6.586z M2,7.414L7.414,2h3.172
		L2,10.586V7.414z M4.586,2L2,4.586V2H4.586z"/>
	<path d="M46,46v7v7h14V46h-7H46z"/>
	<path d="M0,46v14h14V46H0z"/>
	<circle cx="21" cy="53" r="1"/>
	<circle cx="15" cy="7" r="1"/>
	<circle cx="17" cy="53" r="1"/>
	<circle cx="19" cy="7" r="1"/>
	<circle cx="7" cy="19" r="1"/>
	<circle cx="7" cy="27" r="1"/>
	<circle cx="7" cy="31" r="1"/>
	<circle cx="7" cy="15" r="1"/>
	<circle cx="7" cy="23" r="1"/>
	<circle cx="7" cy="43" r="1"/>
	<circle cx="7" cy="35" r="1"/>
	<circle cx="7" cy="39" r="1"/>
	<circle cx="53" cy="41" r="1"/>
	<circle cx="53" cy="21" r="1"/>
	<circle cx="53" cy="17" r="1"/>
	<circle cx="53" cy="45" r="1"/>
	<circle cx="43" cy="7" r="1"/>
	<circle cx="45" cy="53" r="1"/>
	<circle cx="53" cy="33" r="1"/>
	<circle cx="53" cy="37" r="1"/>
	<circle cx="53" cy="29" r="1"/>
	<circle cx="53" cy="25" r="1"/>
	<circle cx="23" cy="7" r="1"/>
	<circle cx="31" cy="7" r="1"/>
	<circle cx="27" cy="7" r="1"/>
	<circle cx="29" cy="53" r="1"/>
	<circle cx="25" cy="53" r="1"/>
	<circle cx="33" cy="53" r="1"/>
	<circle cx="41" cy="53" r="1"/>
	<circle cx="39" cy="7" r="1"/>
	<circle cx="37" cy="53" r="1"/>
	<circle cx="35" cy="7" r="1"/>
</g>
</svg>